<?xml version="1.0" encoding="UTF-8" standalone="no"?>
<!-- Created with Inkscape (http://www.inkscape.org/) -->
<svg xmlns:svg="http://www.w3.org/2000/svg" xmlns="http://www.w3.org/2000/svg" version="1.0" width="844.21198" height="981.20001" viewBox="0 0 844.212 981.2" id="Layer_1" xml:space="preserve"><defs id="defs70"/>
<g id="g3">
	<g id="g5">
		<g id="g7">
			<path d="M 55.377,614.398 L 788.835,614.398 C 807.213,614.398 822.106,629.261 822.106,647.595 L 822.106,925.908 C 822.106,944.243 807.212,959.094 788.835,959.094 L 55.377,959.094 C 36.999,959.094 22.106,944.243 22.106,925.908 L 22.106,647.596 C 22.106,629.262 36.999,614.398 55.377,614.398" style="fill:#fcbd27" id="path9"/>
			<path d="M 55.377,614.398 L 788.835,614.398 C 807.213,614.398 822.106,629.261 822.106,647.595 L 822.106,925.908 C 822.106,944.243 807.212,959.094 788.835,959.094 L 55.377,959.094 C 36.999,959.094 22.106,944.243 22.106,925.908 L 22.106,647.596 C 22.106,629.262 36.999,614.398 55.377,614.398 z " style="fill:none;stroke:#373a3b;stroke-width:44.21160126;stroke-miterlimit:3.86400008" id="path11"/>
			<path d="M 43.797,471.099 C 43.797,261.545 214.081,91.658 424.152,91.658 C 634.218,91.658 804.503,261.546 804.503,471.099 C 804.503,680.672 634.219,850.559 424.152,850.559 C 214.081,850.56 43.797,680.672 43.797,471.099" style="fill:#fcbd27" id="path13"/>
			<path d="M 43.797,471.099 C 43.797,261.545 214.081,91.658 424.152,91.658 C 634.218,91.658 804.503,261.546 804.503,471.099 C 804.503,680.672 634.219,850.559 424.152,850.559 C 214.081,850.56 43.797,680.672 43.797,471.099 z " style="fill:none;stroke:#373a3b;stroke-width:44.21160126;stroke-miterlimit:3.86400008" id="path15"/>
			<path d="M 55.377,614.398 L 788.835,614.398 C 807.213,614.398 822.106,629.261 822.106,647.595 L 822.106,925.908 C 822.106,944.243 807.212,959.094 788.835,959.094 L 55.377,959.094 C 36.999,959.094 22.106,944.243 22.106,925.908 L 22.106,647.596 C 22.106,629.262 36.999,614.398 55.377,614.398" style="fill:#7eb842" id="path17"/>
			<path d="M 43.797,471.099 C 43.797,261.545 214.081,91.658 424.152,91.658 C 634.218,91.658 804.503,261.546 804.503,471.099 C 804.503,680.672 634.219,850.559 424.152,850.559 C 214.081,850.56 43.797,680.672 43.797,471.099" style="fill:#fab429" id="path19"/>
			<path d="M 229.937,698.16 C 229.937,698.16 242.503,702.638 249.648,705.317 C 256.799,708.003 270.231,714.253 270.231,714.253 C 270.231,714.253 278.74,733.016 281.427,748.657 C 284.119,764.3 289.51,804.057 288.158,817.909 C 286.811,831.762 279.642,915.724 271.583,921.548 C 263.536,927.36 232.623,902.798 230.838,898.766 C 229.041,894.746 237.539,870.174 237.539,870.174 L 173.056,868.396 C 173.056,868.396 152.468,940.749 150.67,948.363 C 148.879,955.953 111.716,948.363 109.919,937.63 C 108.134,926.909 126.919,858.113 126.919,858.113 C 126.919,858.113 108.566,852.754 105.886,839.34 C 103.193,825.94 102.292,815.669 105.886,812.988 C 109.468,810.297 113.956,816.595 120.219,818.361 C 126.469,820.128 139.011,823.71 139.011,823.71 C 139.011,823.71 162.311,780.383 177.094,757.588 C 200.235,721.886 229.937,698.16 229.937,698.16 M 234.042,738.516 C 234.042,738.516 220.611,757.606 207.624,781.406 C 196.732,801.343 187.035,824.733 187.035,824.733 L 242.576,826.414 C 242.576,826.414 244.622,808.92 243.014,781.704 C 241.681,758.951 234.042,738.516 234.042,738.516" style="fill:#373a3b;fill-rule:evenodd" id="path21"/>
			<path d="M 229.937,698.16 C 229.937,698.16 242.503,702.638 249.648,705.317 C 256.799,708.003 270.231,714.253 270.231,714.253 C 270.231,714.253 278.74,733.016 281.427,748.657 C 284.119,764.3 289.51,804.057 288.158,817.909 C 286.811,831.762 279.642,915.724 271.583,921.548 C 263.536,927.36 232.623,902.798 230.838,898.766 C 229.041,894.746 237.539,870.174 237.539,870.174 L 173.056,868.396 C 173.056,868.396 152.468,940.749 150.67,948.363 C 148.879,955.953 111.716,948.363 109.919,937.63 C 108.134,926.909 126.919,858.113 126.919,858.113 C 126.919,858.113 108.566,852.754 105.886,839.34 C 103.193,825.94 102.292,815.669 105.886,812.988 C 109.468,810.297 113.956,816.595 120.219,818.361 C 126.469,820.128 139.011,823.71 139.011,823.71 C 139.011,823.71 162.311,780.383 177.094,757.588 C 200.235,721.886 229.937,698.16 229.937,698.16 z M 234.042,738.516 C 234.042,738.516 220.611,757.606 207.624,781.406 C 196.732,801.343 187.035,824.733 187.035,824.733 L 242.576,826.414 C 242.576,826.414 244.622,808.92 243.014,781.704 C 241.681,758.951 234.042,738.516 234.042,738.516 z " style="fill:none;stroke:#373a3b;stroke-width:45.17219925;stroke-miterlimit:3.86400008" id="path23"/>
			<path d="M 308.972,903.188 C 307.175,899.156 313.461,835.733 324.2,801.316 C 334.939,766.907 351.946,709.289 358.221,706.157 C 364.507,703.026 383.299,714.661 387.338,720.899 C 391.37,727.136 384.195,756.191 384.195,756.191 C 384.195,756.191 410.619,702.576 453.606,706.157 C 496.611,709.733 494.771,735.945 494.363,742.779 C 491.245,795.055 450.95,808.005 450.95,808.005 C 450.95,808.005 479.153,827.23 478.258,858.052 C 477.284,891.689 460.429,937.202 401.672,929.552 C 381.077,926.86 364.509,893.369 364.947,888.886 C 365.398,884.415 373.006,864.777 377.483,862.974 C 381.972,861.195 383.599,883.514 413.313,893.796 C 424.953,897.828 428.535,896.025 431.227,894.246 C 439.395,888.801 437.513,870.538 436.167,865.642 C 434.82,860.745 428.084,834.406 413.313,835.283 C 398.529,836.148 402.537,840.192 396.281,840.192 C 390.019,840.192 388.685,838.365 387.789,835.71 C 386.888,833.042 389.599,811.161 393.613,807.58 C 397.633,803.998 422.255,800.416 424.051,800.416 C 425.836,800.416 450.073,769.168 451.389,762.905 C 452.711,756.632 456.274,742.256 446.455,741.433 C 430.325,740.099 390.47,757.977 372.555,818.739 C 351.486,890.19 352.746,927.274 343.438,929.552 C 333.118,932.062 310.762,907.222 308.972,903.188" style="fill:#373a3b" id="path25"/>
			<path d="M 308.972,903.188 C 307.175,899.156 313.461,835.733 324.2,801.316 C 334.939,766.907 351.946,709.289 358.221,706.157 C 364.507,703.026 383.299,714.661 387.338,720.899 C 391.37,727.136 384.195,756.191 384.195,756.191 C 384.195,756.191 410.619,702.576 453.606,706.157 C 496.611,709.733 494.771,735.945 494.363,742.779 C 491.245,795.055 450.95,808.005 450.95,808.005 C 450.95,808.005 479.153,827.23 478.258,858.052 C 477.284,891.689 460.429,937.202 401.672,929.552 C 381.077,926.86 364.509,893.369 364.947,888.886 C 365.398,884.415 373.006,864.777 377.483,862.974 C 381.972,861.195 383.599,883.514 413.313,893.796 C 424.953,897.828 428.535,896.025 431.227,894.246 C 439.395,888.801 437.513,870.538 436.167,865.642 C 434.82,860.745 428.084,834.406 413.313,835.283 C 398.529,836.148 402.537,840.192 396.281,840.192 C 390.019,840.192 388.685,838.365 387.789,835.71 C 386.888,833.042 389.599,811.161 393.613,807.58 C 397.633,803.998 422.255,800.416 424.051,800.416 C 425.836,800.416 450.073,769.168 451.389,762.905 C 452.711,756.632 456.274,742.256 446.455,741.433 C 430.325,740.099 390.47,757.977 372.555,818.739 C 351.486,890.19 352.746,927.274 343.438,929.552 C 333.118,932.062 310.762,907.222 308.972,903.188 z " style="fill:none;stroke:#373a3b;stroke-width:45.17219925;stroke-miterlimit:3.86400008" id="path27"/>
			<path d="M 606.351,704.33 C 623.815,707.468 632.349,708.339 637.697,713.705 C 643.064,719.077 654.279,761.492 652.036,767.76 C 649.789,774.033 607.85,797.991 601.411,795.914 C 595.357,793.94 599.627,791.011 600.51,787.88 C 601.411,784.749 605.006,769.13 605.45,761.967 C 605.9,754.81 591.141,765.799 591.141,765.799 C 591.141,765.799 573.653,781.192 564.692,804.862 C 555.751,828.534 552.607,882.589 553.953,884.38 C 555.301,886.171 592.464,883.039 596.057,881.687 C 599.639,880.36 634.245,862.841 639.05,868.749 C 643.936,874.743 632.35,903.141 623.816,909.403 C 615.295,915.664 575.415,935.765 544.989,927.725 C 514.544,919.671 492.566,901.337 503.33,836.123 C 514.098,770.891 583.971,702.089 606.351,704.33" style="fill:#373a3b" id="path29"/>
			<path d="M 606.351,704.33 C 623.815,707.468 632.349,708.339 637.697,713.705 C 643.064,719.077 654.279,761.492 652.036,767.76 C 649.789,774.033 607.85,797.991 601.411,795.914 C 595.357,793.94 599.627,791.011 600.51,787.88 C 601.411,784.749 605.006,769.13 605.45,761.967 C 605.9,754.81 591.141,765.799 591.141,765.799 C 591.141,765.799 573.653,781.192 564.692,804.862 C 555.751,828.534 552.607,882.589 553.953,884.38 C 555.301,886.171 592.464,883.039 596.057,881.687 C 599.639,880.36 634.245,862.841 639.05,868.749 C 643.936,874.743 632.35,903.141 623.816,909.403 C 615.295,915.664 575.415,935.765 544.989,927.725 C 514.544,919.671 492.566,901.337 503.33,836.123 C 514.098,770.891 583.971,702.089 606.351,704.33 z " style="fill:none;stroke:#373a3b;stroke-width:45.17219925;stroke-miterlimit:3.86400008" id="path31"/>
			<path d="M 717.5,698.331 C 723.341,693.865 733.659,704.586 738.569,710.849 C 743.473,717.111 742.151,731.828 740.353,739.886 C 738.569,747.933 724.686,820.748 721.543,835.502 C 718.399,850.242 710.805,874.353 709.008,875.253 C 707.21,876.155 691.056,864.959 687.949,860.513 C 684.831,856.054 683.953,843.104 685.275,827.912 C 686.597,812.72 699.138,746.124 701.832,737.644 C 704.513,729.171 710.354,705.494 717.5,698.331" style="fill:#373a3b" id="path33"/>
			<path d="M 717.5,698.331 C 723.341,693.865 733.659,704.586 738.569,710.849 C 743.473,717.111 742.151,731.828 740.353,739.886 C 738.569,747.933 724.686,820.748 721.543,835.502 C 718.399,850.242 710.805,874.353 709.008,875.253 C 707.21,876.155 691.056,864.959 687.949,860.513 C 684.831,856.054 683.953,843.104 685.275,827.912 C 686.597,812.72 699.138,746.124 701.832,737.644 C 704.513,729.171 710.354,705.494 717.5,698.331 z " style="fill:none;stroke:#373a3b;stroke-width:45.17219925;stroke-miterlimit:3.86400008" id="path35"/>
			<path d="M 690.966,887.936 C 677.534,890.153 674.812,893.309 672.595,900.448 C 670.383,907.575 669.933,924.119 682.024,926.799 C 694.109,929.48 704.404,925.008 707.998,922.329 C 711.579,919.636 714.224,906.272 713.346,901.788 C 712.474,897.316 704.403,885.718 690.966,887.936" style="fill:#373a3b" id="path37"/>
			<path d="M 690.966,887.936 C 677.534,890.153 674.812,893.309 672.595,900.448 C 670.383,907.575 669.933,924.119 682.024,926.799 C 694.109,929.48 704.404,925.008 707.998,922.329 C 711.579,919.636 714.224,906.272 713.346,901.788 C 712.474,897.316 704.403,885.718 690.966,887.936 z " style="fill:none;stroke:#373a3b;stroke-width:45.17219925;stroke-miterlimit:3.86400008" id="path39"/>
			<path d="M 229.937,698.16 C 229.937,698.16 242.503,702.638 249.648,705.317 C 256.799,708.003 270.231,714.253 270.231,714.253 C 270.231,714.253 278.74,733.016 281.427,748.657 C 284.119,764.3 289.51,804.057 288.158,817.909 C 286.811,831.762 279.642,915.724 271.583,921.548 C 263.536,927.36 232.623,902.798 230.838,898.766 C 229.041,894.746 237.539,870.174 237.539,870.174 L 173.056,868.396 C 173.056,868.396 152.468,940.749 150.67,948.363 C 148.879,955.953 111.716,948.363 109.919,937.63 C 108.134,926.909 126.919,858.113 126.919,858.113 C 126.919,858.113 108.566,852.754 105.886,839.34 C 103.193,825.94 102.292,815.669 105.886,812.988 C 109.468,810.297 113.956,816.595 120.219,818.361 C 126.469,820.128 139.011,823.71 139.011,823.71 C 139.011,823.71 162.311,780.383 177.094,757.588 C 200.235,721.886 229.937,698.16 229.937,698.16 M 234.042,738.516 C 234.042,738.516 220.611,757.606 207.624,781.406 C 196.732,801.343 187.035,824.733 187.035,824.733 L 242.576,826.414 C 242.576,826.414 244.622,808.92 243.014,781.704 C 241.681,758.951 234.042,738.516 234.042,738.516" style="fill:#fff00c;fill-rule:evenodd" id="path41"/>
			<path d="M 308.972,903.188 C 307.175,899.156 313.461,835.733 324.2,801.316 C 334.939,766.907 351.946,709.289 358.221,706.157 C 364.507,703.026 383.299,714.661 387.338,720.899 C 391.37,727.136 384.195,756.191 384.195,756.191 C 384.195,756.191 410.619,702.576 453.606,706.157 C 496.611,709.733 494.771,735.945 494.363,742.779 C 491.245,795.055 450.95,808.005 450.95,808.005 C 450.95,808.005 479.153,827.23 478.258,858.052 C 477.284,891.689 460.429,937.202 401.672,929.552 C 381.077,926.86 364.509,893.369 364.947,888.886 C 365.398,884.415 373.006,864.777 377.483,862.974 C 381.972,861.195 383.599,883.514 413.313,893.796 C 424.953,897.828 428.535,896.025 431.227,894.246 C 439.395,888.801 437.513,870.538 436.167,865.642 C 434.82,860.745 428.084,834.406 413.313,835.283 C 398.529,836.148 401.836,837.804 395.586,837.804 C 389.325,837.804 388.685,838.365 387.789,835.709 C 386.888,833.041 389.599,811.16 393.613,807.579 C 397.633,803.997 422.255,800.415 424.051,800.415 C 425.836,800.415 450.073,769.167 451.389,762.904 C 452.711,756.631 456.274,742.255 446.455,741.432 C 430.325,740.098 390.47,757.976 372.555,818.738 C 351.486,890.189 346.131,926.859 343.438,929.551 C 340.744,932.232 310.762,907.222 308.972,903.188" style="fill:#fff00c" id="path43"/>
			<path d="M 606.351,704.33 C 623.815,707.468 632.349,708.339 637.697,713.705 C 643.064,719.077 654.279,761.492 652.036,767.76 C 649.789,774.033 608.124,795.012 601.411,795.914 C 594.711,796.81 599.627,791.011 600.51,787.88 C 601.411,784.749 605.006,769.13 605.45,761.967 C 605.9,754.81 604.554,738.266 604.554,738.266 C 604.554,738.266 573.653,781.192 564.692,804.862 C 555.751,828.534 552.607,882.589 553.953,884.38 C 555.301,886.171 579.525,885.135 596.057,881.687 C 615.47,877.655 636.802,865.167 639.05,868.749 C 641.292,872.318 632.35,903.141 623.816,909.403 C 615.295,915.664 575.415,935.765 544.989,927.725 C 514.544,919.671 492.566,901.337 503.33,836.123 C 514.098,770.891 583.971,702.089 606.351,704.33" style="fill:#fff00c" id="path45"/>
			<path d="M 717.5,698.331 C 723.341,693.865 733.659,704.586 738.569,710.849 C 743.473,717.111 742.151,731.828 740.353,739.886 C 738.569,747.933 724.686,820.748 721.543,835.502 C 718.399,850.242 710.805,874.353 709.008,875.253 C 707.21,876.155 691.056,864.959 687.949,860.513 C 684.831,856.054 683.953,843.104 685.275,827.912 C 686.597,812.72 699.138,746.124 701.832,737.644 C 704.513,729.171 710.354,705.494 717.5,698.331" style="fill:#fff00c" id="path47"/>
			<path d="M 690.966,887.936 C 677.534,890.153 674.812,893.309 672.595,900.448 C 670.383,907.575 669.933,924.119 682.024,926.799 C 694.109,929.48 704.404,925.008 707.998,922.329 C 711.579,919.636 714.224,906.272 713.346,901.788 C 712.474,897.316 704.403,885.718 690.966,887.936" style="fill:#fff00c" id="path49"/>
			<path d="M 523.813,19.104 C 543.275,51.875 527.419,93.833 530.538,131.593 C 526.798,161.508 540.132,188.517 563.437,206.078 C 632.324,255.545 670,338.217 650.001,421.96 C 648.351,429.672 644.836,436.397 640.943,443.115 C 657.036,441.135 674.226,442.183 684.344,457.442 C 702.617,493.582 688.199,539.913 673.05,573.958 C 653.344,619.813 611.601,672.437 556.938,675.08 C 548.605,675.866 538.956,676.262 533.023,669.756 C 527.085,663.616 522.491,656.179 524.726,647.359 C 512.75,651.489 500.538,658.061 486.899,659.713 C 465.495,662.546 440.715,663.63 421.844,651.045 C 381.885,665.986 327.83,666.56 286.89,651.331 C 270.37,644.819 252.681,629.621 247.132,612.17 C 245.372,604.787 246.468,596.325 248.667,589.376 C 225.874,574.47 197.902,552.676 197.104,522.688 C 195.569,513.229 199.839,506.705 202.446,498.445 C 211.827,491.446 201.697,486.744 197.829,481.03 C 179.762,466.003 171.831,443.995 168.438,421.877 C 164.844,389.574 176.174,358.088 205.151,343.707 C 209.366,340.186 223.675,343.269 217.815,332.993 C 205.602,296.201 215.958,255.456 245.135,229.757 C 278.729,199.806 321.198,192.247 364.568,186.782 C 364.842,182.439 363.959,178.662 363.672,173.747 C 359.816,145.404 367.662,118.395 374.886,94.194 C 392.289,49.993 435.58,6.628 484.433,1.067 C 499.49,0.129 514.78,5.746 523.813,19.104" style="fill:#373a3b" id="path51"/>
			<path d="M 523.813,19.104 C 543.275,51.875 527.419,93.833 530.538,131.593 C 526.798,161.508 540.132,188.517 563.437,206.078 C 632.324,255.545 670,338.217 650.001,421.96 C 648.351,429.672 644.836,436.397 640.943,443.115 C 657.036,441.135 674.226,442.183 684.344,457.442 C 702.617,493.582 688.199,539.913 673.05,573.958 C 653.344,619.813 611.601,672.437 556.938,675.08 C 548.605,675.866 538.956,676.262 533.023,669.756 C 527.085,663.616 522.491,656.179 524.726,647.359 C 512.75,651.489 500.538,658.061 486.899,659.713 C 465.495,662.546 440.715,663.63 421.844,651.045 C 381.885,665.986 327.83,666.56 286.89,651.331 C 270.37,644.819 252.681,629.621 247.132,612.17 C 245.372,604.787 246.468,596.325 248.667,589.376 C 225.874,574.47 197.902,552.676 197.104,522.688 C 195.569,513.229 199.839,506.705 202.446,498.445 C 211.827,491.446 201.697,486.744 197.829,481.03 C 179.762,466.003 171.831,443.995 168.438,421.877 C 164.844,389.574 176.174,358.088 205.151,343.707 C 209.366,340.186 223.675,343.269 217.815,332.993 C 205.602,296.201 215.958,255.456 245.135,229.757 C 278.729,199.806 321.198,192.247 364.568,186.782 C 364.842,182.439 363.959,178.662 363.672,173.747 C 359.816,145.404 367.662,118.395 374.886,94.194 C 392.289,49.993 435.58,6.628 484.433,1.067 C 499.49,0.129 514.78,5.746 523.813,19.104 z " style="fill:none;stroke:#373a3b;stroke-width:1.93359995;stroke-miterlimit:3.86400008" id="path53"/>
			<path d="M 504.552,28.57 C 522.863,51.516 506.849,81.406 508.086,107.824 C 505.186,143.404 502.482,179.373 529.253,204.92 C 585.293,263.963 649.922,329.573 628.968,414.626 C 623.741,432.626 615.506,449.457 602.58,464.125 C 599.425,468.529 600.82,467.682 598.724,468.967 C 592,474.882 584.927,479.097 578.221,484.823 C 578.568,486.334 577.21,488.392 579.282,489.178 C 600.34,484.262 618.887,472.336 633.72,455.993 C 645.884,452.435 654.267,459.562 660.729,468.34 C 666.742,481.083 666.315,494.277 666.431,509.176 C 664.42,516.108 664.883,522.163 663.434,529.296 C 651.635,577.363 625.497,633.324 571.571,649.308 C 565.833,651.453 560.491,652.702 555.642,651.678 C 553.204,650.502 549.977,649.466 549.313,646.085 C 548.167,642.169 549.155,638.143 551.561,634.049 C 555.94,626.489 562.952,623.133 566.666,616.036 C 579.793,600.053 585.081,579.019 584.496,558.278 C 578.222,571.551 571.169,585.385 560.94,597.458 C 534.084,631.308 496.183,647.248 454.165,640.098 C 452.654,640.073 451.546,638.538 450.437,637.394 C 450.437,636.833 450.45,636.26 450.462,635.694 C 472.294,619.492 488.746,597.147 485.268,568.994 C 483.593,556.331 476.259,544.129 464.673,536.583 C 457.948,531.752 446.953,533.439 440.192,531.259 C 444.961,518.333 442.58,503.013 435.014,492.134 C 427.071,482.004 416.046,475.017 404.192,471.612 C 406.36,466.745 412.86,462.518 415.406,457.103 C 419.896,448.886 422.539,437.994 420.846,427.213 C 418.848,422.462 417.24,417.534 413.524,413.519 C 422.284,410.084 431.987,406.295 440.406,400.405 C 461.031,388.691 468.213,366.945 469.163,344.529 C 466.544,321.863 459.198,298.924 438.621,285.924 C 413.452,266.633 375.137,263.514 343.998,271.64 C 343.875,256.93 329.701,245.941 317.854,243.097 C 301.011,238.839 273.618,254.774 273.6,255.334 C 289.419,252.776 310.307,252.953 319.127,267.438 C 319.62,271.215 321.271,274.26 320.632,278.402 C 320.784,283.727 299.836,292.559 292.429,302.804 C 344.772,289.568 379.005,280.169 410.096,296.737 C 431.665,305.984 445.998,329.423 445.011,353.35 C 444.7,370.692 429.892,385.695 414.859,391.287 C 407.026,396.428 396.244,396.611 386.577,398.523 C 339.808,403.548 293.714,391.439 260.468,357.68 C 238.759,334.674 231.528,302.414 240.044,272.097 C 254.395,235.738 293.916,217.981 328.259,210.087 C 341.702,208.254 355.554,205.469 369.698,207.041 C 370.648,206.682 394.551,244.99 415.182,254.024 C 428.333,258.976 442.429,263.179 457.389,261.748 C 458.357,260.438 458.357,259.872 457.45,258.538 C 450.652,258.038 445.773,252.788 440.217,248.993 C 415.669,225.944 395.957,196.936 392.194,163.879 C 382.551,110.159 406.989,63.828 447.442,30.783 C 462.589,18.604 489.147,13.031 504.552,28.57" style="fill:white" id="path55"/>
			<path d="M 224.424,354.408 C 248.466,406.306 303.916,423.484 358.921,423.495 C 370.245,423.879 382.013,421.826 393.191,419.755 C 398.74,426.827 400.421,438.352 396.504,446.399 C 380.466,477.599 345.245,480.955 313.65,483.611 C 282.486,482.314 251.159,479.493 225.362,463.028 C 201.106,445.065 185.714,417.081 191.903,387.965 C 195.868,376.726 201.935,365.323 213.022,357.977 C 218.576,354.194 218.783,352.611 224.424,354.408" style="fill:white" id="path57"/>
			<path d="M 476.033,376.227 C 473.627,405.605 482.149,434.124 504.089,454.872 C 520.025,473.06 543.153,479.871 564.644,483.075 C 568.573,485.408 564.345,489.288 563.346,492.297 C 546.157,502.737 524.399,492.931 508.482,484.737 C 479.189,462.54 464.697,427.04 467.237,389.548 C 469.077,381.854 470.733,373.595 476.307,368.033 C 476.581,371.415 476.337,372.347 476.033,376.227" style="fill:#373a3b" id="path59"/>
			<path d="M 414.486,510.249 C 418.451,521.262 409.79,529.784 405.848,538.952 C 378.73,565.626 343.589,576.14 306.724,576.815 C 271.169,577.711 238.421,559.041 222.517,528.024 C 219.873,517.607 218.174,506.083 226.835,497.75 C 275.632,516.883 340.341,513.106 385.052,485.238 C 398.051,487.528 410.539,497.359 414.486,510.249" style="fill:white" id="path61"/>
			<path d="M 465.208,570.899 C 469.557,591.909 456.57,610.158 439.746,621.561 C 397.289,649.666 330.248,647.187 286.238,623.595 C 278.819,616.31 263.261,608.684 268.214,595.752 C 289.034,604.798 308.545,600.362 331.899,596.3 C 365.146,586.505 399.501,577.484 425.097,551.163 C 441.354,551.256 455.212,558.663 465.208,570.899" style="fill:white" id="path63"/>
			<path d="M 743.4,893.32 C 743.4,874.742 758.469,859.672 777.06,859.672 C 795.632,859.672 810.703,874.742 810.703,893.32 C 810.703,911.911 795.633,926.981 777.06,926.981 C 758.47,926.981 743.4,911.911 743.4,893.32" style="fill:#fff00c" id="path65"/>
			<path d="M 760.852,913.69 L 760.852,872.037 C 763.435,872.037 767.29,872.049 772.419,872.086 C 777.584,872.086 780.453,872.099 781.038,872.135 C 784.334,872.378 787.062,873.085 789.243,874.28 C 792.953,876.314 794.799,879.628 794.799,884.22 C 794.799,887.717 793.812,890.251 791.838,891.823 C 789.907,893.382 787.513,894.32 784.656,894.612 C 787.276,895.161 789.243,895.965 790.57,897.012 C 793.013,898.998 794.251,902.105 794.251,906.344 L 794.251,910.072 C 794.251,910.474 794.262,910.888 794.299,911.291 C 794.361,911.705 794.464,912.107 794.598,912.521 L 794.957,913.691 L 784.553,913.691 C 784.218,912.351 783.993,910.45 783.895,907.927 C 783.792,905.418 783.573,903.712 783.232,902.823 C 782.683,901.36 781.66,900.337 780.162,899.765 C 779.352,899.436 778.109,899.204 776.446,899.106 L 774.052,898.961 L 771.755,898.961 L 771.755,913.69 L 760.852,913.69 L 760.852,913.69 z M 780.728,880.248 C 779.242,879.664 777.122,879.371 774.412,879.371 L 771.756,879.371 L 771.756,891.456 L 775.984,891.456 C 778.542,891.456 780.528,890.945 781.96,889.922 C 783.386,888.911 784.098,887.254 784.098,884.987 C 784.096,882.696 782.97,881.125 780.728,880.248 M 803.631,919.757 C 796.321,926.823 787.55,930.356 777.322,930.356 C 766.741,930.356 757.836,926.738 750.599,919.502 C 743.363,912.253 739.732,903.359 739.732,892.785 C 739.732,881.808 743.649,872.683 751.471,865.41 C 758.804,858.613 767.429,855.215 777.322,855.215 C 787.684,855.215 796.534,858.881 803.881,866.227 C 811.227,873.561 814.895,882.418 814.895,892.786 C 814.895,903.457 811.13,912.46 803.631,919.757 M 755.241,871.014 C 749.254,877.13 746.257,884.391 746.257,892.785 C 746.257,901.496 749.315,908.878 755.388,914.957 C 761.437,921.049 768.752,924.095 777.323,924.095 C 785.84,924.095 793.136,921.026 799.191,914.909 C 805.24,908.769 808.261,901.374 808.261,892.785 C 808.261,884.428 805.252,877.167 799.24,871.014 C 793.149,864.765 785.84,861.634 777.323,861.634 C 768.686,861.634 761.313,864.765 755.241,871.014" style="fill:#373a3b;fill-rule:evenodd" id="path67"/>
		</g>
	</g>
</g>
</svg>